<svg xmlns="http://www.w3.org/2000/svg" viewBox="0 0 24 24"><g fill='#FFFFFF'><path d="M19.47 10.58L21 9.6l-2.4-4.19-1.63.83c-1.09.56-2.4-.19-2.46-1.42L14.4 3H9.59l-.1 1.82C9.43 6.04 8.13 6.8 7.03 6.24L5.4 5.41 3 9.6l1.53.98c1.03.66 1.03 2.17 0 2.84L3 14.4l2.4 4.19 1.63-.83c1.09-.56 2.4.19 2.46 1.42L9.6 21l4.8-.01.11-1.81c.06-1.23 1.37-1.98 2.46-1.42l1.63.83L21 14.4l-1.53-.98c-1.03-.67-1.03-2.18 0-2.84zM12 15.5c-1.93 0-3.5-1.57-3.5-3.5s1.57-3.5 3.5-3.5 3.5 1.57 3.5 3.5-1.57 3.5-3.5 3.5z"></path></g></svg>